<svg width="24" height="25" viewBox="0 0 24 25" fill="none" xmlns="http://www.w3.org/2000/svg">
<path d="M14.6579 12.9593C14.6579 16.8689 11.4885 20.0383 7.57895 20.0383C3.66935 20.0383 0.5 16.8689 0.5 12.9593C0.5 9.04972 3.66935 5.88037 7.57895 5.88037C11.4885 5.88037 14.6579 9.04972 14.6579 12.9593Z" stroke="#D92929"/>
<path d="M23.4999 12.9593C23.4999 16.8689 20.3306 20.0383 16.421 20.0383C12.5114 20.0383 9.34204 16.8689 9.34204 12.9593C9.34204 9.04972 12.5114 5.88037 16.421 5.88037C20.3306 5.88037 23.4999 9.04972 23.4999 12.9593Z" stroke="#D92929"/>
<path d="M9.81812 11.4092H14.4401" stroke="#D92929"/>
<path d="M9.81812 14.6819H14.1818" stroke="#D92929"/>
</svg>
