<svg width="23" height="24" viewBox="0 0 23 24" fill="none" xmlns="http://www.w3.org/2000/svg">
<path d="M20.125 4.5H3.87501C2.84107 4.5 2 5.34107 2 6.37501V17.625C2 18.6589 2.84107 19.5 3.87501 19.5H20.125C21.1589 19.5 22 18.6589 22 17.625V6.37501C22 5.34107 21.1589 4.5 20.125 4.5ZM20.125 5.74999C20.2099 5.74999 20.2907 5.76761 20.3645 5.79838L12 13.048L3.63542 5.79838C3.70927 5.76765 3.79005 5.74999 3.87497 5.74999H20.125ZM20.125 18.25H3.87501C3.53017 18.25 3.24999 17.9698 3.24999 17.6249V7.11901L11.5904 14.3474C11.7083 14.4493 11.8541 14.5 12 14.5C12.1459 14.5 12.2917 14.4493 12.4096 14.3474L20.75 7.11901V17.625C20.75 17.9698 20.4698 18.25 20.125 18.25Z" fill="#D92929"/>
</svg>
