<svg width="23" height="24" viewBox="0 0 23 24" fill="none" xmlns="http://www.w3.org/2000/svg">
<path d="M15.6664 13.1909L12.6666 11.2272V7.22728C12.6666 6.82509 12.2941 6.5 11.8333 6.5C11.3725 6.5 11 6.82509 11 7.22728V11.5909C11 11.82 11.1233 12.036 11.3333 12.1727L14.6664 14.3545C14.8164 14.4527 14.9914 14.5 15.1655 14.5C15.4197 14.5 15.6696 14.4004 15.833 14.2084C16.1097 13.8876 16.0347 13.4316 15.6664 13.1909Z" fill="#D92929"/>
<path d="M12 1.5C6.48566 1.5 2 5.98566 2 11.5C2 17.0143 6.48566 21.5 12 21.5C17.5143 21.5 22 17.0143 22 11.5C22 5.98566 17.5143 1.5 12 1.5ZM12 19.9508C7.34082 19.9508 3.54918 16.1592 3.54918 11.5C3.54918 6.84082 7.34082 3.04918 12 3.04918C16.66 3.04918 20.4508 6.84082 20.4508 11.5C20.4508 16.1592 16.6592 19.9508 12 19.9508Z" fill="#D92929"/>
</svg>
