<svg width="23" height="24" viewBox="0 0 23 24" fill="none" xmlns="http://www.w3.org/2000/svg">
<g clip-path="url(#clip0_2701_1466)">
<path d="M16.3376 0.5H6.66001C5.73449 0.5 4.98682 1.24352 4.98682 2.16033V21.6256C4.98682 22.5395 5.73449 23.2837 6.66001 23.2837H16.3376C17.2617 23.2837 18.0123 22.5402 18.0123 21.6256V2.16033C18.0116 1.24352 17.2617 0.5 16.3376 0.5ZM16.7572 18.96H6.24189V3.30078H16.7572V18.96ZM13.7426 2.18478H9.25581V1.70013H13.7433L13.7426 2.18478ZM15.6626 1.96331C15.6626 2.19773 15.4695 2.38756 15.2336 2.38756C14.9969 2.38756 14.8046 2.19701 14.8046 1.96331C14.8046 1.72961 14.9969 1.53906 15.2336 1.53906C15.4702 1.53834 15.6626 1.72889 15.6626 1.96331ZM13.5415 21.5148H9.45543V20.2694H13.5415V21.5148Z" fill="#D92929"/>
</g>
<defs>
<clipPath id="clip0_2701_1466">
<rect width="23" height="23" fill="white" transform="translate(0 0.5)"/>
</clipPath>
</defs>
</svg>
