<svg width="24" height="23" viewBox="0 0 24 23" fill="none" xmlns="http://www.w3.org/2000/svg">
<g clip-path="url(#clip0_2701_1435)">
<path d="M10.3076 1C5.45121 1 1.5 4.95121 1.5 9.80758C1.5 14.6642 5.45121 18.6152 10.3076 18.6152C15.1642 18.6152 19.1152 14.6642 19.1152 9.80758C19.1152 4.95121 15.1642 1 10.3076 1ZM10.3076 16.9892C6.3477 16.9892 3.12602 13.7675 3.12602 9.80762C3.12602 5.84773 6.3477 2.62602 10.3076 2.62602C14.2675 2.62602 17.4891 5.8477 17.4891 9.80758C17.4891 13.7675 14.2675 16.9892 10.3076 16.9892Z" fill="#121318"/>
<path d="M21.2617 19.6124L16.6005 14.9511C16.2829 14.6335 15.7685 14.6335 15.4509 14.9511C15.1332 15.2684 15.1332 15.7834 15.4509 16.1007L20.1121 20.762C20.2709 20.9208 20.4788 21.0002 20.6869 21.0002C20.8948 21.0002 21.1029 20.9208 21.2617 20.762C21.5793 20.4446 21.5793 19.9297 21.2617 19.6124Z" fill="#121318"/>
</g>
<defs>
<clipPath id="clip0_2701_1435">
<rect width="20" height="20" fill="white" transform="translate(1.5 1)"/>
</clipPath>
</defs>
</svg>
